<?xml version="1.0" encoding="utf-8"?>
<!-- Generator: Adobe Illustrator 21.0.0, SVG Export Plug-In . SVG Version: 6.00 Build 0)  -->
<svg version="1.1" id="Layer_1" xmlns="http://www.w3.org/2000/svg" xmlns:xlink="http://www.w3.org/1999/xlink" x="0px" y="0px"
	 viewBox="0 0 200 100" style="enable-background:new 0 0 200 100;" xml:space="preserve">
<style type="text/css">
	.st0{fill:none;stroke:#37474F;stroke-linecap:round;stroke-miterlimit:10;}
	.st1{fill:#37474F;}
</style>
<line class="st0" x1="157" y1="89.7" x2="185" y2="89.7"/>
<g>
	<path class="st1" d="M52.7,46.8c-0.5,4.4-2.2,8.5-5.1,12.1c-2.5,3.2-5.9,6-10.3,8.3c-4.9,2.7-10.8,4.8-17.5,6.3
		c-2.9,0.6-6,1.1-9.1,1.4c-1.7,0.2-3.2-1-3.4-2.7c-0.2-1.6,1.1-3.1,2.7-3.3c16.7-1.9,35.1-8.8,36.6-22.7c0.3-3.3-0.4-5.7-2.2-7.2
		c-2.3-1.9-6.5-2.7-12.2-2.4c-5.6,0.3-11.4,1.8-15.7,3C15.6,49,15,58.5,15.4,64.5c0.1,1.5-1,2.8-2.4,3.2c-0.2,0-0.4,0-0.5,0
		c-1.7,0.1-3.2-1.2-3.3-2.9C8.5,51.6,12,23.8,13.5,12.7c-2.7,1.2-5.6,2.6-8.7,4.3c-1.5,0.8-3.3,0.2-4.1-1.2C0,14.2,0.5,12.3,2,11.6
		c8.4-4.5,15.6-7.5,21.4-9.1c6.7-1.7,11.7-1.6,15.5,0.3c1.9,1,3.4,2.3,4.5,4.2c1.1,1.7,1.8,3.7,2.1,6.2c0.6,4.4-0.8,8.5-4.2,12.4
		c-1.4,1.6-3.2,3.2-5.3,4.7c5.3,0.2,9.5,1.5,12.4,3.8c1.6,1.5,2.9,3.2,3.6,5.3C52.8,41.6,53,44.1,52.7,46.8z M39.5,14.1
		c-0.4-2.9-1.5-4.9-3.4-5.8C33.9,7.1,30,7.2,25,8.4c-1.5,0.4-3.1,0.9-4.9,1.6c-0.5,3.2-1.8,12.5-2.9,22.9c2.7-0.9,6.9-2.5,10.9-4.8
		C33.8,25.1,40.4,20.1,39.5,14.1z"/>
	<path class="st1" d="M63.4,63.5c-2.3,0.1-4.3-0.6-5.8-2.1c-2.5-2.4-3.2-6.6-2.2-11.5c0.9-4.6,3.4-9.2,6.9-13c0.6-0.6,1.3-1,2.2-1
		c0.6-1.8,1.6-3.5,3.2-5c4.4-4.5,8.1-4.3,10-3.8c3,0.9,5.3,3.5,6.2,7.2c0.8,3.3,0.4,7.3-1,11.2c-0.1,0.4-0.3,0.9-0.5,1.3
		c2-0.7,3.8-2.2,5.3-4.5c1-1.3,2.8-1.6,4.3-0.7c1.3,1,1.7,2.8,0.7,4.3c-2,2.9-4.5,5-7.3,6.3c-2.2,1-4.6,1.4-7,1.3
		c-1.1,1.4-2.3,2.6-3.6,3.9c-3.4,3-6.5,5-9.2,5.7C64.7,63.4,64,63.5,63.4,63.5z M64.6,43.7c-1.6,2.3-2.7,5-3.3,7.4
		c-0.6,3.1-0.1,5.2,0.6,6c0.2,0.1,0.5,0.5,2,0.1c1.2-0.3,3.4-1.3,6.6-4.3c0.4-0.5,0.9-0.8,1.3-1.3C68.5,50,65.8,47.1,64.6,43.7z
		 M75.5,33c-0.9,0.1-2.2,0.8-3.6,2.2c-1.9,1.9-2.4,4-1.6,6.2c0.7,2.4,2.8,4.3,5.3,5.4c2.3-4.1,3-8.1,2.3-11
		c-0.3-1.4-1.1-2.5-1.9-2.7C75.8,33,75.6,33,75.5,33z"/>
	<path class="st1" d="M94.3,61.5c-2.5-0.1-4.6-1.5-5.9-3.9c-1.5-2.7-1.5-6.6,0-11.8c1.2-3.7,3.2-8.3,6-13.4c0.8-1.5,2.7-2,4.2-1.3
		c1.4,0.8,2,2.7,1.2,4.2c-7.9,14.5-6.4,18.6-6.1,19.3c0.5,0.7,0.7,0.7,1,0.7c1.5,0,4.6-1.8,8.7-6.4c3.4-3.8,6.8-8.7,8.8-12.8
		c0.8-1.5,2.6-2.1,4.1-1.4s2.1,2.5,1.4,4c-3,6.1-4,10.1-4.3,12.5c-0.5,2.8,0.1,4,0.2,4.1c0.3,0.1,1.6,0,3.9-1.7
		c2-1.3,5.1-4.1,9.1-9.6c1-1.3,2.9-1.6,4.3-0.6c1.3,1,1.6,2.9,0.6,4.2c-3.9,5.1-7.7,9-11,11.3c-5,3.3-8.2,2.7-10.1,1.6
		c-1.5-0.9-3.1-2.8-3.4-6.7c-4.5,4.9-8.6,7.4-12.2,7.5L94.3,61.5z"/>
	<path class="st1" d="M133.5,67.3c-1.9-0.3-3.8-1.1-5.4-2.5c-1.7-1.5-2.9-3.4-3.7-5.5c-1.4-3.9-2-12.1,8.8-22.7
		c2.6-2.6,5.2-4.4,7.8-5.3c2.6-0.9,5.1-0.9,7.2,0.1c1.6,0.7,3,1.8,3.9,3.3c0.8,1.5,1.2,3.1,1.2,4.8c-0.1,1.8-0.7,3.5-1.7,4.9
		c-1.1,1.5-2.7,2.7-4.6,3.3c-1.6,0.6-3.3-0.3-3.9-1.8c-0.6-1.6,0.3-3.3,1.8-3.9c1.9-0.7,2.3-1.9,2.3-2.6c0-0.9-0.4-2-1.4-2.4
		c-1.5-0.6-4.4,0.1-8.3,3.9c-6.1,6.1-8.8,12.1-7.3,16.4c0.8,2.5,2.7,3.8,4.1,4c6.9,1,13.8-3.3,18.8-11.7c0.9-1.4,2.8-1.9,4.2-1
		c1.5,0.8,1.9,2.7,1.1,4.1c-3.2,5.2-6.9,9.1-11.2,11.6C142.9,66.9,138.1,67.9,133.5,67.3z"/>
	<path class="st1" d="M152.8,67.7c-1.3-0.3-2.2-1-2.8-2.2c-0.5-1.1-1.1-3.2,0.4-8.5c0.9-3.4,2.5-7.6,4.5-11.9
		c3.3-7,8.1-13.9,11.6-18.3c4.4-5.7,9.4-11.2,13.6-15c1.9-1.7,3.7-2.8,5.4-3.4c3-1,4.9,0.2,5.7,0.8c1.3,1.1,2.6,3.3,1.9,7.4
		c-0.5,2.7-1.8,5.9-3.9,9.2c-3,5.1-6.6,9.2-10.5,12.3c-5,4-10.6,6.2-16.7,6.6c-0.6,1-1.1,2-1.6,3.1c-1.5,3.4-2.7,6.5-3.6,9.2
		c2.5-3,5.6-6.6,8.9-9.4c5-4.3,9.2-6,13-5.1c2.9,0.7,4.9,2.1,5.8,4.3c1.6,3.9-1.2,8.4-4,12.7c-1,1.6-2.1,3.2-2.7,4.6
		c-0.6,1.3-0.7,2-0.8,2.1c0.2,0,0.5,0.3,1.2,0.5c0.7,0.2,3.3,0.3,9.4-4.1c3.6-2.6,6.4-5.4,6.5-5.4c1.1-1.1,3.1-1.1,4.3,0
		c1.1,1.2,1.1,3.2,0,4.3c-0.2,0.1-3.2,3.1-7.2,6c-5.9,4.3-10.6,5.9-14.3,5.1c-2.8-0.6-4.6-2-5.5-4.1c-0.7-1.8-0.5-4,0.7-6.6
		c0.9-1.8,2.1-3.8,3.3-5.7c1.1-1.7,2.2-3.4,2.9-4.9s0.6-2.1,0.6-2.2c-0.1-0.1-0.4-0.4-1.5-0.6c-1-0.2-3.3,0-7.6,3.7
		c-3.4,2.9-6.6,6.9-9.3,10c-1.2,1.4-2.2,2.7-3.1,3.6C156.4,66.5,154.8,68.1,152.8,67.7z M187.2,14.2c-0.6,0.3-1.6,0.8-3,2.1
		c-5.4,4.8-12.5,13-18.1,21.4c6.9-1.9,12.9-6.9,18-15.2c1.7-3,2.6-5.1,2.9-6.3C187.1,15.3,187.2,14.6,187.2,14.2z"/>
</g>
<g>
	<path class="st1" d="M58.5,89.6c0,3.2-0.8,5.6-2.5,7.3c-1.7,1.6-4.1,2.5-7.4,2.5h-4.6V80.3h5.1c3,0,5.4,0.8,6.9,2.4
		C57.7,84.2,58.5,86.6,58.5,89.6z M57.1,89.7c0-2.7-0.7-4.8-2.1-6.2c-1.4-1.4-3.4-2.1-6.1-2.1h-3.5v16.7h3.2
		C54.2,98.1,57.1,95.3,57.1,89.7z"/>
	<path class="st1" d="M73.3,99.3H62.9V80.3h10.4v1.2h-9.1v7.2h8.6v1.2h-8.6v8.2h9.1V99.3z"/>
	<path class="st1" d="M88.2,94.4c0,1.6-0.6,2.8-1.8,3.8s-2.7,1.4-4.7,1.4c-2.3,0-4.1-0.3-5.4-0.8v-1.3c1.4,0.6,3.1,0.9,5.3,0.9
		c1.6,0,2.8-0.4,3.7-1.1c0.9-0.7,1.4-1.7,1.4-2.8c0-0.7-0.2-1.3-0.5-1.8c-0.3-0.5-0.8-0.9-1.5-1.3c-0.7-0.4-1.7-0.8-3-1.3
		c-1.9-0.7-3.3-1.4-4-2.2c-0.7-0.8-1.1-1.8-1.1-3.1c0-1.4,0.6-2.6,1.7-3.5c1.1-0.9,2.6-1.3,4.3-1.3c1.8,0,3.5,0.3,5,1l-0.5,1.1
		c-1.6-0.7-3.1-1-4.5-1c-1.4,0-2.5,0.3-3.4,1c-0.8,0.7-1.3,1.5-1.3,2.7c0,0.7,0.1,1.3,0.4,1.7c0.3,0.5,0.7,0.9,1.3,1.2
		s1.6,0.8,3,1.3c1.5,0.5,2.6,1,3.3,1.5c0.7,0.5,1.3,1,1.6,1.6S88.2,93.5,88.2,94.4z"/>
	<path class="st1" d="M92.2,99.3V80.3h1.3v19.1H92.2z"/>
	<path class="st1" d="M106.4,89.7h7v8.7c-1.8,0.8-3.9,1.2-6.2,1.2c-3,0-5.3-0.8-6.9-2.5c-1.6-1.7-2.4-4.1-2.4-7.2
		c0-1.9,0.4-3.7,1.2-5.2c0.8-1.5,1.9-2.7,3.4-3.5s3.2-1.2,5.1-1.2c2.1,0,3.9,0.4,5.6,1.1l-0.5,1.2c-1.7-0.8-3.4-1.1-5.1-1.1
		c-2.5,0-4.5,0.8-6,2.3c-1.5,1.6-2.2,3.6-2.2,6.3c0,2.9,0.7,5,2.1,6.5c1.4,1.4,3.5,2.2,6.2,2.2c1.8,0,3.2-0.2,4.5-0.7V91h-5.7V89.7z
		"/>
	<path class="st1" d="M132.1,99.3h-1.3l-11.3-16.9h-0.1c0.1,2,0.2,3.5,0.2,4.6v12.4h-1.3V80.3h1.3l11.3,16.9h0.1
		c-0.1-1.6-0.1-3-0.1-4.5V80.3h1.3V99.3z"/>
	<path class="st1" d="M148,94.4c0,1.6-0.6,2.8-1.8,3.8c-1.2,0.9-2.7,1.4-4.7,1.4c-2.3,0-4.1-0.3-5.4-0.8v-1.3
		c1.4,0.6,3.1,0.9,5.3,0.9c1.6,0,2.8-0.4,3.7-1.1s1.4-1.7,1.4-2.8c0-0.7-0.2-1.3-0.5-1.8c-0.3-0.5-0.8-0.9-1.5-1.3s-1.7-0.8-3-1.3
		c-1.9-0.7-3.3-1.4-4-2.2c-0.7-0.8-1.1-1.8-1.1-3.1c0-1.4,0.6-2.6,1.7-3.5c1.1-0.9,2.6-1.3,4.3-1.3c1.8,0,3.5,0.3,5,1l-0.5,1.1
		c-1.6-0.7-3.1-1-4.5-1c-1.4,0-2.5,0.3-3.4,1c-0.8,0.7-1.3,1.5-1.3,2.7c0,0.7,0.1,1.3,0.4,1.7c0.3,0.5,0.7,0.9,1.3,1.2
		s1.6,0.8,3,1.3c1.5,0.5,2.6,1,3.3,1.5c0.7,0.5,1.3,1,1.6,1.6C147.8,92.8,148,93.5,148,94.4z"/>
</g>
<line class="st0" x1="7.2" y1="89.7" x2="35.2" y2="89.7"/>
</svg>
