<svg xmlns="http://www.w3.org/2000/svg" viewBox="6855 4641 50 50">
  <defs>
    <style>
      .cls-1 {
        fill: #37474f;
      }
    </style>
  </defs>
  <path id="instagram" class="cls-1" d="M16.5,2h21A14.51,14.51,0,0,1,52,16.5v21A14.5,14.5,0,0,1,37.5,52h-21A14.51,14.51,0,0,1,2,37.5v-21A14.5,14.5,0,0,1,16.5,2M16,7a9,9,0,0,0-9,9V38a8.994,8.994,0,0,0,9,9H38a9,9,0,0,0,9-9V16a8.994,8.994,0,0,0-9-9H16m24.125,3.75A3.125,3.125,0,1,1,37,13.875a3.125,3.125,0,0,1,3.125-3.125M27,14.5A12.5,12.5,0,1,1,14.5,27,12.5,12.5,0,0,1,27,14.5m0,5A7.5,7.5,0,1,0,34.5,27,7.5,7.5,0,0,0,27,19.5Z" transform="translate(6853 4639)"/>
</svg>
